<svg xmlns="http://www.w3.org/2000/svg" width="512" height="512" viewBox="0 0 512 512">
  <defs><linearGradient id="bg" x1="0" y1="0" x2="1" y2="1"><stop offset="0" stop-color="#6d5bd0"></stop><stop offset="1" stop-color="#8b7bea"></stop></linearGradient></defs>
  <rect width="512" height="512" rx="114" fill="url(#bg)"></rect>
  <g transform="translate(146 146) scale(2.2)">
    <path d="M50 4 C53 30 70 47 96 50 C70 53 53 70 50 96 C47 70 30 53 4 50 C30 47 47 30 50 4 Z" fill="#fff"></path>
    <path d="M78 12 C79 19 84 24 91 25 C84 26 79 31 78 38 C77 31 72 26 65 25 C72 24 77 19 78 12 Z" fill="#fff" opacity="0.75"></path>
  </g>
</svg>